<svg width="139" height="109" viewBox="0 0 139 109" fill="none" xmlns="http://www.w3.org/2000/svg">
<g clip-path="url(#clip0)">
<path d="M38.3257 4.99873L31.5215 13.6771C29.7163 12.0108 26.7308 10.6917 23.6758 10.6917C21.3152 10.6917 19.3711 11.872 19.3711 13.3994C19.3711 15.3433 21.5235 16.4541 24.7867 17.6344C29.9246 19.5783 36.1733 22.9108 36.1733 31.7975C36.1733 42.4892 27.5639 48.9459 15.483 48.9459C9.0954 48.9459 3.74925 46.7936 0 43.3917L4.51299 34.3662C7.08192 36.7962 11.3866 38.1847 15.8996 38.1847C20.2737 38.1847 21.7318 36.5879 21.7318 34.7828C21.7318 32.4917 19.4406 31.4503 16.7328 30.4089C11.8032 28.465 5.13786 25.2713 5.13786 15.6904C5.13786 5.83185 11.9421 0 23.2592 0C28.6054 0 34.0904 1.73567 38.3257 4.99873Z" fill="white"/>
<path d="M70.7498 6.31783C71.3052 2.70764 74.4296 -7.30157e-07 78.04 -7.30157e-07C81.3726 -7.30157e-07 83.3167 2.01337 83.3167 5.34586C83.3167 5.76242 83.3167 5.90127 83.2473 6.38726L79.984 30.7561C78.4566 42.4197 70.7498 48.8764 58.4606 48.8764C47.2128 48.8764 41.0335 43.0446 41.0335 33.2554C41.0335 32.2834 41.0335 31.1726 41.2418 29.9924L44.8522 6.38726C45.3382 3.05478 48.046 0.347133 51.4481 -0.0694275C51.8646 -7.30157e-07 52.3507 -7.30157e-07 52.8367 -7.30157e-07C56.3776 -7.30157e-07 58.4606 2.01338 58.4606 5.48471C58.4606 5.90127 58.4606 5.9707 58.3911 6.38726L55.1973 29.7146C55.0585 30.7561 54.9196 31.5892 54.9196 32.2834C54.9196 36.1713 56.7248 38.1847 59.7103 38.1847C64.2233 38.1847 66.4451 34.644 67.2782 29.0204L70.7498 6.31783Z" fill="white"/>
<path d="M139 7.84522L138.306 48.2516H124.211L125.808 23.8134L116.018 48.2516H103.868L99.98 24.4382L95.1893 48.2516H82.7612L92.8287 6.04013C93.6618 2.49936 96.7862 0.0694268 100.397 0C105.326 0 108.451 1.73567 109.075 5.69299L113.45 33.9497L124.281 5.27643C125.461 2.0828 128.516 0 131.918 0H131.988C137.056 0 139.139 1.87452 139 7.84522Z" fill="white"/>
<path d="M38.3257 65.1223L31.5215 73.8006C29.7163 72.1344 26.7308 70.8153 23.6758 70.8153C21.3152 70.8153 19.3711 71.9955 19.3711 73.5229C19.3711 75.4669 21.5235 76.5777 24.7867 77.758C29.9246 79.7019 36.1733 83.0344 36.1733 91.921C36.1733 102.613 27.5639 109.069 15.483 109.069C9.0954 109.069 3.74925 106.917 0 103.515L4.51299 94.4898C7.08192 96.9892 11.3866 98.3777 15.969 98.3777C20.3432 98.3777 21.8012 96.7809 21.8012 94.9758C21.8012 92.6847 19.51 91.6433 16.8022 90.6019C11.8726 88.658 5.20729 85.4643 5.20729 75.8834C5.20729 65.9554 12.0115 60.1236 23.3287 60.1236C28.6054 60.1236 34.0904 61.7898 38.3257 65.1223Z" fill="white"/>
<path d="M70.7498 66.372C71.3052 62.7618 74.3602 60.1236 77.9705 60.1236H78.04C81.3726 60.1236 83.3167 62.1369 83.3167 65.4694C83.3167 65.886 83.3167 66.0248 83.2473 66.5108L79.984 90.8796C78.4566 102.543 70.7498 109 58.4606 109C47.2128 109 41.0335 103.168 41.0335 93.379C41.0335 92.407 41.0335 91.2962 41.2418 90.1159L44.7827 66.9274C45.4076 62.9701 48.8097 60.0541 52.7672 60.0541C56.3082 60.0541 58.3911 62.0675 58.3911 65.5389C58.3911 65.9554 58.3911 66.0248 58.3217 66.4414L55.1279 89.7688C54.989 90.8102 54.8502 91.6433 54.8502 92.3376C54.8502 96.2255 56.6554 98.2389 59.6409 98.2389C64.1539 98.2389 66.3756 94.6981 67.2088 89.0745L70.7498 66.372Z" fill="white"/>
<path d="M139 67.9688L138.306 108.375H124.211L125.808 83.9369L116.019 108.306H103.868L100.049 84.4924L95.2588 108.306H82.8307L92.8981 66.0248C93.7313 62.5535 96.8557 60.0541 100.397 60.0541H100.466C105.396 60.0541 108.52 61.7898 109.145 65.7471L113.519 94.0038L124.281 65.4C125.461 62.2064 128.585 60.0541 131.988 60.0541C137.056 60.1236 139.139 61.9287 139 67.9688Z" fill="white"/>
</g>
<defs>
<clipPath id="clip0">
<rect width="139" height="109" fill="white"/>
</clipPath>
</defs>
</svg>
